<svg width="104" height="30" viewBox="0 0 104 30" fill="none" xmlns="http://www.w3.org/2000/svg">
<path d="M15.7747 15.4003C15.1272 14.7554 14.3914 14.2058 13.5893 13.7681C12.7769 13.3248 11.941 12.926 11.0853 12.5736C10.2313 12.2225 9.39595 11.8808 8.57927 11.5485C7.81291 11.2419 7.07695 10.8642 6.38103 10.4204C5.76934 10.0356 5.2391 9.53449 4.82035 8.94553C4.41337 8.32893 4.20752 7.60136 4.23111 6.86294C4.18613 6.07626 4.3136 5.28925 4.6046 4.55699C4.80915 4.10824 5.11235 3.71145 5.49158 3.39617C5.92044 3.12402 6.40224 2.94611 6.90506 2.87425C7.60273 2.75276 8.31006 2.69534 9.01819 2.7027C10.1339 2.71444 11.2446 2.8534 12.3288 3.1169C13.4234 3.37173 14.5045 3.68203 15.5676 4.04659L15.6902 4.08884L16.5563 0.706357L16.4327 0.681624C15.4661 0.48833 14.4842 0.326604 13.514 0.200673C12.4195 0.0640071 11.3174 -0.00258652 10.2145 0.00129935C8.8802 -0.0198143 7.55436 0.216561 6.30958 0.697483C5.24395 1.1127 4.26283 1.71851 3.41424 2.48524C2.66004 3.1731 2.04782 4.00197 1.61213 4.92508C1.21154 5.76192 0.998795 6.67622 0.988786 7.60394C0.958192 8.71976 1.15609 9.83005 1.57033 10.8666C1.93439 11.7197 2.45907 12.4949 3.11582 13.1499C3.76154 13.7852 4.49814 14.321 5.30146 14.7397C6.11342 15.1643 6.95105 15.5568 7.79121 15.9061C8.62862 16.2546 9.46721 16.5995 10.2832 16.9309C11.0538 17.24 11.7904 17.6277 12.4815 18.0879C13.1065 18.5037 13.6382 19.045 14.0427 19.6774C14.4515 20.3661 14.6556 21.1572 14.631 21.9578C14.6387 22.5467 14.591 23.135 14.4885 23.7149C14.4134 24.1364 14.2833 24.5461 14.1015 24.9337C13.9632 25.2254 13.7723 25.4891 13.5384 25.7117C13.336 25.8974 13.1145 26.0611 12.8777 26.2003C12.3702 26.4827 11.8265 26.6944 11.2617 26.8296C10.4897 27.0135 9.69778 27.0999 8.90432 27.0867C8.20489 27.0825 7.5087 26.9914 6.83177 26.8154C6.12817 26.6374 5.437 26.4135 4.76273 26.145C4.12007 25.889 3.49168 25.5986 2.88031 25.2749C2.36164 24.9989 1.90379 24.7305 1.51958 24.4771L1.39901 24.3976L0 27.7552L0.093375 27.8071C1.21375 28.427 2.39993 28.9198 3.62981 29.2762C5.06901 29.6733 6.55714 29.8649 8.04999 29.8452C9.48331 29.8696 10.9072 29.609 12.239 29.0785C13.3902 28.6115 14.4408 27.9273 15.3334 27.0631C16.1543 26.2592 16.8058 25.2989 17.2493 24.2389C18.0953 22.1552 18.1208 19.8286 17.3207 17.7269C16.9589 16.8596 16.434 16.0698 15.7747 15.4003Z" fill="#676057"/>
<path d="M44.2337 8.98805C43.238 7.92188 42.0089 7.1009 40.6427 6.58952C39.0387 6.00723 37.3411 5.72538 35.635 5.75808C33.9356 5.72122 32.2444 6.00337 30.649 6.5899C29.3139 7.09917 28.121 7.92251 27.1713 8.99028C26.2309 10.0897 25.5431 11.382 25.1562 12.7761C24.7078 14.3959 24.4905 16.0709 24.5108 17.7514C24.4923 19.442 24.7055 21.1271 25.1444 22.7597C25.5236 24.1735 26.1982 25.4909 27.1238 26.6248C28.0562 27.7238 29.2418 28.5795 30.5785 29.1181C32.1748 29.7375 33.8775 30.036 35.5892 29.9966C37.3014 30.029 39.0044 29.7389 40.6094 29.1417C41.9853 28.6147 43.2189 27.7736 44.2119 26.6853C45.1984 25.5648 45.9359 24.2479 46.376 22.8215C46.8789 21.1792 47.1238 19.4688 47.1022 17.7514C47.1238 16.0649 46.8826 14.3852 46.3872 12.7728C45.9518 11.3702 45.217 10.0789 44.2337 8.98805ZM35.5892 27.9271C34.3546 27.9689 33.1287 27.7067 32.0192 27.1637C31.0889 26.6716 30.3036 25.9444 29.7416 25.0545C29.1376 24.0657 28.7206 22.9743 28.5113 21.8347C28.2528 20.4892 28.127 19.1215 28.1358 17.7514C28.1358 16.7965 28.1665 15.8639 28.2272 14.9796C28.2802 14.1555 28.379 13.3351 28.5231 12.522C28.6372 11.8536 28.8188 11.1985 29.0651 10.5668C29.2359 10.0972 29.5143 9.67421 29.8782 9.33175C30.5881 8.77139 31.4167 8.38073 32.3008 8.18961C33.3924 7.92605 34.5121 7.79668 35.635 7.80438C36.8504 7.77344 38.057 8.01966 39.1631 8.52436C40.1253 8.98982 40.9586 9.68419 41.5901 10.5466C42.2602 11.4907 42.7393 12.5567 43.0003 13.6847C43.3144 15.0171 43.4669 16.3825 43.4545 17.7514C43.4545 18.6564 43.42 19.5695 43.3519 20.465C43.2909 21.3011 43.1807 22.1328 43.0219 22.9559C42.892 23.6431 42.7026 24.3177 42.4557 24.972C42.2946 25.4493 42.0148 25.8778 41.6426 26.2173C40.9072 26.8531 40.0349 27.3105 39.0937 27.5536C37.9456 27.8232 36.7683 27.9486 35.5892 27.9271Z" fill="#676057"/>
<path d="M71.9783 14.9258C71.9783 15.3545 71.9822 15.8286 71.9896 16.3347C71.9971 16.8607 72.0047 17.4211 72.0124 18.016C72.0199 18.6137 72.0237 19.2057 72.0237 19.7773C72.0383 21.0819 72.0595 22.4834 72.0871 23.9476L55.7136 5.94582L55.678 5.90674H54.1101V29.7335H56.4536V21.7207C56.4536 21.5831 56.4499 21.3306 56.4423 20.9633C56.4344 20.5974 56.4268 20.1629 56.4196 19.6598C56.4118 19.1567 56.4041 18.604 56.3965 18.0016C56.3886 17.3986 56.3772 16.7861 56.3624 16.1816C56.3347 14.9122 56.3061 13.4474 56.2751 11.7103L72.6725 29.8085L72.7081 29.8477H74.3217V6.08961H71.9783V14.9258Z" fill="#676057"/>
<path d="M102.805 12.7728C102.37 11.3702 101.635 10.0789 100.652 8.98805C99.656 7.92188 98.4269 7.1009 97.0607 6.58952C95.4567 6.00722 93.7591 5.72537 92.0529 5.75808C90.3536 5.72123 88.6624 6.00338 87.0671 6.5899C85.7319 7.09911 84.539 7.92246 83.5894 8.99028C82.6489 10.0897 81.961 11.382 81.5741 12.7761C81.1257 14.3959 80.9084 16.0709 80.9288 17.7514C80.9103 19.442 81.1235 21.1271 81.5624 22.7597C81.9416 24.1735 82.6162 25.4909 83.5418 26.6248C84.4742 27.7237 85.6598 28.5794 86.9965 29.1181C88.5927 29.7375 90.2954 30.036 92.0072 29.9966C93.7194 30.0289 95.4224 29.7389 97.0275 29.1417C98.4033 28.6148 99.6369 27.7736 100.63 26.6853C101.616 25.5649 102.354 24.2479 102.794 22.8215C103.297 21.1792 103.542 19.4688 103.52 17.7514C103.542 16.0649 103.301 14.3852 102.805 12.7728ZM99.8724 17.7514C99.8724 18.6595 99.8378 19.5725 99.7698 20.465C99.7089 21.3011 99.5987 22.1328 99.4399 22.9559C99.31 23.6431 99.1205 24.3176 98.8737 24.972C98.7126 25.4493 98.4328 25.8778 98.0606 26.2173C97.3252 26.8531 96.4529 27.3104 95.5117 27.5536C94.3636 27.8232 93.1863 27.9486 92.0072 27.9271C90.7726 27.9689 89.5467 27.7067 88.4372 27.1637C87.5068 26.6716 86.7216 25.9444 86.1596 25.0545C85.5556 24.0657 85.1385 22.9743 84.9292 21.8347C84.6707 20.4892 84.5449 19.1215 84.5537 17.7514C84.5537 16.7982 84.5844 15.8657 84.6451 14.9796C84.6981 14.1555 84.7969 13.3351 84.9411 12.522C85.0551 11.8536 85.2367 11.1985 85.4831 10.5668C85.6538 10.0972 85.9323 9.6742 86.2962 9.33175C87.0061 8.77139 87.8347 8.38073 88.7188 8.18961C89.8103 7.92604 90.93 7.79667 92.0529 7.80438C93.2684 7.77342 94.4749 8.01963 95.581 8.52436C96.5432 8.98985 97.3765 9.68421 98.0081 10.5466C98.6782 11.4907 99.1573 12.5567 99.4183 13.6847C99.7323 15.0171 99.8848 16.3826 99.8724 17.7514Z" fill="#676057"/>
</svg>
